<svg width="102" height="42" viewBox="0 0 102 42" fill="none" xmlns="http://www.w3.org/2000/svg">
<rect width="102" height="42" fill="#DFE2E2"/>
<g id="Second step" clip-path="url(#clip0_0_1)">
<rect width="1366" height="1040" transform="translate(-99 -8)" fill="white"/>
<g id="&#208;&#156;&#208;&#181;&#208;&#189;&#209;&#142;">
<path id="bg" d="M1267 -8H-99V50.24H1267V-8Z" fill="white"/>
<g id="logo">
<path id="Exclusion 1" d="M19.532 41.9201C16.9543 41.922 14.4028 41.3835 12.0299 40.3367C9.65688 39.29 7.51117 37.7564 5.72095 35.8278C2.05172 31.8826 0.000488281 26.6088 0.000488281 21.1201C0.000488281 15.6314 2.05172 10.3575 5.72095 6.4124C7.51234 4.48533 9.65828 2.95286 12.031 1.90624C14.4037 0.85962 16.9546 0.320251 19.532 0.320251C22.1093 0.320251 24.6602 0.85962 27.0329 1.90624C29.4056 2.95286 31.5516 4.48533 33.343 6.4124C37.0122 10.3575 39.0634 15.6314 39.0634 21.1201C39.0634 26.6088 37.0122 31.8826 33.343 35.8278C31.5528 37.7565 29.4071 39.2901 27.0341 40.3368C24.6611 41.3836 22.1096 41.9221 19.532 41.9201ZM23.278 30.7234V33.8434C23.506 33.8923 23.7381 33.9171 23.971 33.9173C24.6323 33.9336 25.2916 33.8338 25.921 33.6219C26.4469 33.4274 26.9214 33.1067 27.306 32.6859C27.7357 32.2012 28.09 31.6496 28.356 31.051C28.665 30.3844 28.991 29.5857 29.325 28.6788L34.011 15.6507H30.48L27.595 24.3285L24.548 15.6507H20.623L25.794 28.6507C25.6104 29.2388 25.346 29.7961 25.009 30.3054C24.8848 30.4657 24.726 30.5932 24.5454 30.6774C24.3648 30.7616 24.1676 30.8002 23.97 30.79C23.7371 30.7898 23.505 30.765 23.277 30.7162L23.278 30.7234ZM11.09 26.9139C11.2573 27.1932 11.4542 27.452 11.677 27.6856C11.9272 27.9492 12.2104 28.1766 12.519 28.3616C12.8597 28.5653 13.2244 28.7223 13.604 28.8286C14.0257 28.9454 14.4605 29.0031 14.897 29.0002C15.6405 29.0106 16.3784 28.8641 17.066 28.5696C17.7065 28.2868 18.2753 27.8536 18.728 27.3039C19.2176 26.6917 19.5793 25.9801 19.79 25.2146C20.0504 24.2635 20.1747 23.2778 20.159 22.289V21.7971C20.2789 20.0711 19.8054 18.3568 18.823 16.9601C18.3266 16.4027 17.7168 15.9676 17.0381 15.6865C16.3594 15.4055 15.6289 15.2856 14.9 15.3356C14.2008 15.334 13.5121 15.5129 12.8957 15.8561C12.2793 16.1993 11.7544 16.6962 11.368 17.3022V11.4782H7.81295V28.683H11.09V26.915V26.9139ZM14.045 25.8822C13.69 25.8887 13.3377 25.8181 13.0105 25.6748C12.6833 25.5316 12.3885 25.3188 12.145 25.0502C11.596 24.3919 11.3183 23.5352 11.372 22.6655V21.4321C11.3437 21.0256 11.398 20.6174 11.5313 20.2341C11.6647 19.8509 11.8741 19.5011 12.146 19.2075C12.6611 18.7094 13.3428 18.44 14.046 18.4566C14.3845 18.4454 14.7211 18.5136 15.0308 18.6562C15.3405 18.7988 15.6154 19.0121 15.835 19.2803C16.341 20.0103 16.5823 20.903 16.516 21.8002V22.2922C16.5797 23.2417 16.333 24.1858 15.816 24.9712C15.6101 25.2567 15.3425 25.4879 15.0349 25.646C14.7272 25.8041 14.3881 25.8847 14.045 25.8812V25.8822Z" fill="#01BAB3"/>
<path id="Path 5" d="M49.718 29.752C48.5836 29.8557 47.4537 29.5082 46.556 28.7796C46.1867 28.336 45.9082 27.8187 45.7375 27.2594C45.5667 26.7001 45.5074 26.1105 45.563 25.5265V19.5247H43.947V16.8841H45.563V14.0033H48.61V16.8841H51.565V19.5247H48.61V25.046C48.563 25.5924 48.6974 26.1389 48.991 26.5946C49.1818 26.7735 49.4073 26.9078 49.6522 26.9885C49.8972 27.0693 50.1559 27.0945 50.411 27.0626C50.8723 27.0626 51.334 27.0387 51.796 26.9908V29.6314C51.5033 29.6633 51.1993 29.6914 50.884 29.7156C50.5686 29.7399 50.18 29.752 49.718 29.752ZM53.988 16.8852H56.804V18.7572C56.9255 18.4778 57.0808 18.2157 57.266 17.9772C57.47 17.7095 57.7113 17.475 57.982 17.2814C58.2649 17.0783 58.5713 16.913 58.894 16.7895C59.2466 16.6572 59.6192 16.5921 59.994 16.5971C60.2447 16.5943 60.4954 16.6102 60.744 16.6449C60.8806 16.6594 61.015 16.6915 61.144 16.7406V19.5486C60.9524 19.473 60.7555 19.4128 60.555 19.3687C60.2394 19.3053 59.9183 19.2771 59.597 19.2844C59.1923 19.2725 58.7902 19.3546 58.42 19.5247C58.1109 19.672 57.8375 19.8895 57.62 20.1612C57.4086 20.4327 57.2552 20.7478 57.17 21.0857C57.0768 21.4458 57.0304 21.8173 57.032 22.1902V29.6085H53.985L53.988 16.8852ZM68.299 29.8924C67.4947 29.8968 66.6953 29.7629 65.933 29.4962C65.2081 29.2453 64.5433 28.8361 63.983 28.296C63.4058 27.7244 62.9565 27.0278 62.667 26.2556C62.3267 25.3332 62.162 24.351 62.182 23.3633V22.8828C62.1635 21.9398 62.3214 21.002 62.647 20.1216C62.9269 19.3804 63.3605 18.7125 63.917 18.1654C64.4566 17.6447 65.093 17.2444 65.787 16.9892C66.5208 16.7205 67.294 16.5864 68.072 16.5929C68.8678 16.5342 69.6667 16.6439 70.4206 16.9154C71.1745 17.1869 71.8676 17.6146 72.458 18.1727C72.9871 18.7926 73.392 19.5161 73.6491 20.3007C73.9061 21.0854 74.0101 21.9155 73.955 22.7424V24.083H65.299C65.3021 24.5845 65.3961 25.0809 65.576 25.5463C65.7255 25.9278 65.9539 26.2704 66.245 26.5499C66.5219 26.8081 66.8484 27.002 67.203 27.1188C67.5582 27.2387 67.9294 27.2997 68.303 27.2997C68.9143 27.3373 69.5248 27.2124 70.077 26.9368C70.474 26.6988 70.7767 26.3216 70.931 25.8728H73.724C73.6351 26.4778 73.4272 27.0572 73.1134 27.5749C72.7996 28.0925 72.3865 28.5374 71.9 28.8816C70.8243 29.5865 69.5696 29.9388 68.299 29.8924ZM68.184 19.1856C67.8294 19.1856 67.4764 19.2339 67.134 19.3292C66.8039 19.4171 66.4939 19.5723 66.222 19.7857C65.9475 20.0106 65.7264 20.2981 65.576 20.626C65.3963 21.0242 65.3018 21.4582 65.299 21.898H70.999C70.9983 21.4459 70.9162 20.9979 70.757 20.5772C70.6281 20.249 70.4217 19.96 70.157 19.7368C69.8956 19.5252 69.5918 19.3777 69.268 19.3052C68.912 19.2235 68.5484 19.1833 68.184 19.1856ZM76.147 16.881H78.964V18.753C79.3015 18.1281 79.7912 17.6066 80.384 17.2408C81.1884 16.7695 82.1048 16.5448 83.027 16.5929C83.6362 16.5425 84.2488 16.6278 84.8238 16.843C85.3989 17.0582 85.9233 17.3984 86.362 17.8409C87.1532 18.8532 87.5463 20.1398 87.462 21.4414V29.6033H84.411V22.16C84.4652 21.3949 84.2662 20.6334 83.847 20.002C83.5983 19.7393 83.296 19.5381 82.9624 19.4136C82.6288 19.289 82.2725 19.2441 81.92 19.2824C81.4929 19.2693 81.0681 19.3512 80.674 19.5226C80.3524 19.6696 80.065 19.8867 79.831 20.1591C79.6077 20.423 79.4423 20.7342 79.346 21.0712C79.2445 21.4255 79.194 21.7935 79.196 22.1632V29.6054H76.147V16.881ZM94.729 29.8924C94.0201 29.9285 93.3123 29.8021 92.6556 29.5221C91.9989 29.242 91.4095 28.8153 90.929 28.2721C89.8971 26.8709 89.3986 25.123 89.529 23.3633V22.8828C89.4153 21.1942 89.9181 19.523 90.937 18.2028C91.418 17.6651 92.0058 17.2427 92.6596 16.9648C93.3134 16.687 94.0174 16.5605 94.723 16.594C95.491 16.5789 96.2495 16.7732 96.923 17.1576C97.545 17.5181 98.0783 18.0236 98.481 18.6344V12.8H101.528V29.6044H98.699V27.7324C98.3462 28.3564 97.8465 28.8768 97.247 29.2445C96.4836 29.7043 95.6104 29.929 94.729 29.8924ZM95.447 27.204C96.257 27.2389 97.0476 26.9399 97.6469 26.372C97.9486 26.0338 98.1793 25.6339 98.3244 25.198C98.4695 24.762 98.5259 24.2995 98.49 23.8396V22.4024C98.5212 21.9698 98.4597 21.5355 98.3099 21.1306C98.1602 20.7258 97.9259 20.3606 97.624 20.0613C97.0149 19.5294 96.2378 19.2515 95.443 19.2813C95.0618 19.2684 94.6824 19.3423 94.3316 19.4979C93.9808 19.6535 93.6669 19.8869 93.412 20.182C92.8352 20.95 92.5553 21.9144 92.627 22.886V23.3664C92.549 24.4007 92.8363 25.4289 93.435 26.2587C93.6819 26.5616 93.9906 26.8035 94.3386 26.967C94.6866 27.1305 95.0652 27.2115 95.447 27.204Z" fill="black" fill-opacity="0.85"/>
</g>
</g>
</g>
<defs>
<clipPath id="clip0_0_1">
<rect width="1366" height="1040" fill="white" transform="translate(-99 -8)"/>
</clipPath>
</defs>
</svg>
